<?xml version="1.0" encoding="iso-8859-1"?>
<!-- Generator: Adobe Illustrator 19.0.0, SVG Export Plug-In . SVG Version: 6.00 Build 0)  -->
<svg version="1.1" id="Capa_1" xmlns="http://www.w3.org/2000/svg" xmlns:xlink="http://www.w3.org/1999/xlink" x="0px" y="0px"
	 viewBox="0 0 512 512" style="enable-background:new 0 0 512 512;" xml:space="preserve">
<path style="fill:#B5D9FF;" d="M353.333,504.5H158.667c-23.298,0-41.278-20.496-38.243-43.596l34.056-259.228h203.04l34.056,259.228
	C394.611,484.004,376.631,504.5,353.333,504.5z"/>
<path style="fill:#9FD3E3;" d="M120.424,460.904c-3.035,23.099,14.945,43.596,38.243,43.596h194.666
	c23.298,0,41.278-20.496,38.243-43.596l-0.656-4.995H121.08L120.424,460.904z"/>
<path style="fill:#BDC0C3;" d="M377.38,152.908H134.62c-11.003,0-19.923,8.92-19.923,19.923v8.922
	c0,11.003,8.92,19.923,19.923,19.923h242.76c11.003,0,19.923-8.92,19.923-19.923v-8.922
	C397.303,161.828,388.383,152.908,377.38,152.908z"/>
<path style="fill:#DCDEDF;" d="M305.305,7.5h-98.61c-31.182,0-60.09,16.319-76.201,43.018l0,0
	c-10.256,16.996-14.743,36.852-12.792,56.607l2.827,28.628c0.961,9.736,9.15,17.156,18.933,17.156h233.077
	c9.783,0,17.972-7.42,18.933-17.156l2.827-28.628c1.951-19.755-2.536-39.611-12.792-56.607l0,0
	C365.396,23.819,336.488,7.5,305.305,7.5z"/>
<g>
	<circle style="fill:#BDC0C3;" cx="256" cy="39.19" r="12.415"/>
	<circle style="fill:#BDC0C3;" cx="204.17" cy="43.08" r="12.415"/>
	<circle style="fill:#BDC0C3;" cx="307.83" cy="43.08" r="12.415"/>
</g>
<path style="fill:#FFFFFF;" d="M344.32,324.768c-0.827-6.298-6.702-10.677-12.97-9.648c-32.588,5.348-59.934,4.313-90.669-0.899
	c-17.825-3.022-43.07-5.751-65.345,1.556c-4.129,1.354-7.125,4.946-7.691,9.254l-18.349,139.666
	c-0.484,3.693,1.212,6.261,2.266,7.463c1.055,1.202,3.38,3.218,7.105,3.218h194.666c3.725,0,6.05-2.016,7.105-3.218
	c1.054-1.202,2.75-3.77,2.266-7.463L344.32,324.768z"/>
<g>
	<ellipse style="fill:#F298B8;" cx="199.18" cy="417.96" rx="20.964" ry="16.695"/>
	<ellipse style="fill:#F298B8;" cx="312.82" cy="417.96" rx="20.964" ry="16.695"/>
</g>
<path style="opacity:0.15;enable-background:new    ;" d="M225.721,7.5h-19.026c-31.182,0-60.09,16.319-76.201,43.018l0,0
	c-10.256,16.996-14.743,36.852-12.792,56.607l2.827,28.628c0.961,9.736,9.15,17.156,18.933,17.156h124.752
	C204.468,124.482,197.546,46.882,225.721,7.5z"/>
<path style="opacity:0.15;enable-background:new    ;" d="M264.214,152.908H134.62c-11.003,0-19.923,8.92-19.923,19.923v8.922
	c0,11.003,8.92,19.923,19.923,19.923h133.486C243.585,190.463,245.871,161.853,264.214,152.908z"/>
<path style="opacity:0.15;enable-background:new    ;" d="M360.786,226.543l-3.267-24.866H154.48l-34.056,259.228
	c-3.035,23.099,14.945,43.596,38.243,43.596h100.637c-96.543-27.812-64.412-179.975-51.385-255.492
	c2.239-12.981,13.489-22.465,26.662-22.465h126.205V226.543z"/>
<g style="opacity:0.15;">
	<circle cx="207.27" cy="353.09" r="7.475"/>
	<circle cx="281.24" cy="450.88" r="7.475"/>
	<circle cx="308.07" cy="341.71" r="7.475"/>
</g>
<path d="M262.103,396.705c-1.541,1.768-3.765,2.783-6.103,2.783c-2.338,0-4.561-1.015-6.102-2.783
	c-2.723-3.124-7.46-3.449-10.582-0.728c-3.123,2.721-3.449,7.458-0.729,10.581c4.391,5.04,10.737,7.93,17.413,7.93
	c6.676,0,13.022-2.89,17.413-7.93c2.721-3.123,2.395-7.86-0.728-10.581C269.563,393.256,264.824,393.581,262.103,396.705z
	 M344.337,311.168c-4.108-3.052-9.15-4.279-14.201-3.449c-29.543,4.849-55.921,4.582-88.201-0.892
	c-17.935-3.041-44.594-6.161-68.937,1.823c-6.835,2.242-11.854,8.289-12.789,15.404L141.86,463.722
	c-0.869,6.625,2.174,11.229,4.064,13.385c1.892,2.156,6.061,5.772,12.742,5.772h194.666c6.681,0,10.851-3.616,12.742-5.772
	c1.891-2.155,4.934-6.76,4.064-13.386l-8.417-64.071c-0.54-4.108-4.319-7.001-8.413-6.459c-4.108,0.54-6.999,4.306-6.46,8.413
	l8.417,64.07c0.031,0.24,0.115,0.878-0.467,1.541c-0.583,0.665-1.226,0.665-1.467,0.665H158.667c-0.241,0-0.884,0-1.467-0.665
	c-0.582-0.664-0.498-1.302-0.467-1.54l18.349-139.667c0.188-1.431,1.205-2.649,2.592-3.104c21.182-6.947,45.388-4.063,61.753-1.287
	c34.01,5.766,61.866,6.037,93.138,0.905c1.359-0.225,2.354,0.336,2.829,0.69c0.479,0.355,1.31,1.158,1.49,2.535l5.381,40.957
	c0.54,4.107,4.319,6.993,8.413,6.459c4.107-0.539,6.999-4.306,6.46-8.413l-5.381-40.957
	C351.089,318.709,348.454,314.226,344.337,311.168z M293.099,393.9v7.403c0,4.142,3.357,7.5,7.5,7.5s7.5-3.358,7.5-7.5V393.9
	c0-4.142-3.357-7.5-7.5-7.5S293.099,389.758,293.099,393.9z M203.901,393.9v7.403c0,4.142,3.357,7.5,7.5,7.5s7.5-3.358,7.5-7.5
	V393.9c0-4.142-3.357-7.5-7.5-7.5C207.259,386.4,203.901,389.758,203.901,393.9z M404.803,181.753v-8.922
	c0-9.209-4.568-17.367-11.552-22.342c3.11-3.885,5.159-8.686,5.684-13.999l2.827-28.628c2.095-21.221-2.818-42.962-13.835-61.219
	C370.566,17.873,338.908,0,305.306,0h-98.611c-33.603,0-65.261,17.873-82.622,46.643c-11.017,18.257-15.93,39.998-13.835,61.219
	l2.827,28.628c0.525,5.314,2.574,10.114,5.684,13.999c-6.984,4.976-11.552,13.133-11.552,22.342v8.922
	c0,15.121,12.302,27.423,27.423,27.423h11.31l-32.943,250.751c-1.727,13.151,2.299,26.412,11.046,36.383S145.403,512,158.667,512
	h194.666c13.264,0,25.887-5.719,34.634-15.69s12.772-23.232,11.046-36.383l-32.943-250.75h11.31
	C392.501,209.177,404.803,196.874,404.803,181.753z M384.14,461.881c1.165,8.87-1.55,17.813-7.449,24.538S362.278,497,353.333,497
	H158.667c-8.945,0-17.459-3.856-23.357-10.581c-5.899-6.725-8.614-15.668-7.449-24.538l33.2-252.704h189.88L384.14,461.881z
	 M134.62,194.177c-6.85,0-12.423-5.573-12.423-12.423v-8.922c0-6.85,5.573-12.423,12.423-12.423h26.578c4.143,0,7.5-3.358,7.5-7.5
	s-3.357-7.5-7.5-7.5h-21.736c-5.953,0-10.885-4.468-11.47-10.393l-2.827-28.627c-1.779-18.023,2.394-36.489,11.751-51.995
	C151.578,30.094,178.315,15,206.694,15h98.611c28.379,0,55.116,15.094,69.778,39.393c9.357,15.506,13.53,33.972,11.751,51.995
	l-2.827,28.628c-0.585,5.925-5.517,10.393-11.47,10.393H196.195c-4.143,0-7.5,3.358-7.5,7.5s3.357,7.5,7.5,7.5H377.38
	c6.85,0,12.423,5.573,12.423,12.423v8.922c0,6.85-5.573,12.423-12.423,12.423L134.62,194.177L134.62,194.177z M204.169,62.992
	c10.982,0,19.916-8.934,19.916-19.916c0-10.981-8.935-19.916-19.916-19.916c-10.981,0-19.915,8.934-19.915,19.916
	S193.188,62.992,204.169,62.992z M204.169,38.161c2.711,0,4.916,2.205,4.916,4.916c0,2.71-2.205,4.916-4.916,4.916
	c-2.71,0-4.915-2.205-4.915-4.916C199.254,40.366,201.459,38.161,204.169,38.161z M307.831,62.992
	c10.981,0,19.915-8.934,19.915-19.916c0-10.981-8.934-19.916-19.915-19.916c-10.981,0-19.916,8.934-19.916,19.916
	C287.915,54.058,296.85,62.992,307.831,62.992z M307.831,38.161c2.71,0,4.915,2.205,4.915,4.916c0,2.71-2.205,4.916-4.915,4.916
	c-2.711,0-4.916-2.205-4.916-4.916C302.915,40.366,305.12,38.161,307.831,38.161z M256,59.109c10.981,0,19.915-8.934,19.915-19.916
	c0-10.981-8.934-19.916-19.915-19.916s-19.915,8.934-19.915,19.916S245.019,59.109,256,59.109z M256,34.278
	c2.71,0,4.915,2.205,4.915,4.916c0,2.71-2.205,4.916-4.915,4.916s-4.915-2.205-4.915-4.916S253.29,34.278,256,34.278z"/>
<g>
</g>
<g>
</g>
<g>
</g>
<g>
</g>
<g>
</g>
<g>
</g>
<g>
</g>
<g>
</g>
<g>
</g>
<g>
</g>
<g>
</g>
<g>
</g>
<g>
</g>
<g>
</g>
<g>
</g>
</svg>
