<?xml version="1.0" encoding="iso-8859-1"?>
<!-- Generator: Adobe Illustrator 19.0.0, SVG Export Plug-In . SVG Version: 6.00 Build 0)  -->
<svg version="1.1" id="Capa_1" xmlns="http://www.w3.org/2000/svg" xmlns:xlink="http://www.w3.org/1999/xlink" x="0px" y="0px"
	 viewBox="0 0 512 512" style="enable-background:new 0 0 512 512;" xml:space="preserve">
<g>
	<g>
		<g>
			<circle cx="281.238" cy="450.884" r="7.475"/>
			<path d="M211.401,386.4c-4.143,0-7.5,3.358-7.5,7.5v7.403c0,4.142,3.357,7.5,7.5,7.5s7.5-3.358,7.5-7.5V393.9
				C218.901,389.758,215.544,386.4,211.401,386.4z"/>
			<path d="M300.599,386.4c-4.143,0-7.5,3.358-7.5,7.5v7.403c0,4.142,3.357,7.5,7.5,7.5s7.5-3.358,7.5-7.5V393.9
				C308.099,389.758,304.741,386.4,300.599,386.4z"/>
			<circle cx="207.27" cy="353.088" r="7.475"/>
			<path d="M272.685,395.977c-3.122-2.721-7.86-2.397-10.582,0.728c-1.541,1.768-3.765,2.783-6.103,2.783
				c-2.338,0-4.561-1.015-6.102-2.783c-2.723-3.124-7.46-3.449-10.582-0.728c-3.123,2.721-3.449,7.458-0.729,10.581
				c4.391,5.04,10.737,7.93,17.413,7.93c6.676,0,13.022-2.89,17.413-7.93C276.134,403.435,275.808,398.698,272.685,395.977z"/>
			<path d="M204.169,62.992c10.982,0,19.916-8.934,19.916-19.916c0-10.981-8.935-19.916-19.916-19.916s-19.915,8.934-19.915,19.916
				S193.188,62.992,204.169,62.992z M204.169,38.161c2.711,0,4.916,2.205,4.916,4.916c0,2.71-2.205,4.916-4.916,4.916
				c-2.71,0-4.915-2.205-4.915-4.916S201.459,38.161,204.169,38.161z"/>
			<path d="M404.803,181.753v-8.922c0-9.209-4.568-17.367-11.552-22.342c3.11-3.885,5.159-8.686,5.684-13.999l2.827-28.628
				c2.095-21.221-2.818-42.962-13.835-61.219C370.566,17.873,338.908,0,305.306,0h-98.611c-33.603,0-65.261,17.873-82.622,46.643
				c-11.017,18.257-15.93,39.998-13.835,61.219l2.827,28.628c0.525,5.314,2.574,10.114,5.684,13.999
				c-6.984,4.976-11.552,13.133-11.552,22.342v8.922c0,15.121,12.302,27.423,27.423,27.423h11.31l-32.943,250.751
				c-1.727,13.151,2.299,26.412,11.046,36.383S145.403,512,158.667,512h194.666c13.264,0,25.887-5.719,34.634-15.69
				s12.772-23.232,11.046-36.383l-32.943-250.75h11.31C392.501,209.177,404.803,196.874,404.803,181.753z M376.69,486.419
				C370.792,493.144,362.278,497,353.333,497H158.667c-8.945,0-17.459-3.856-23.357-10.581c-5.561-6.339-8.289-14.649-7.608-23.01
				h14.2l-0.041,0.313c-0.869,6.625,2.174,11.229,4.064,13.385c1.892,2.156,6.061,5.772,12.742,5.772h194.666
				c6.681,0,10.851-3.616,12.742-5.772c1.891-2.155,4.934-6.76,4.064-13.386l-0.041-0.311h14.2
				C384.979,471.77,382.251,480.081,376.69,486.419z M382.37,448.409h-14.241l-6.406-48.76c-0.54-4.108-4.319-7.001-8.413-6.459
				c-4.108,0.54-6.999,4.306-6.46,8.413l8.417,64.07c0.031,0.24,0.115,0.878-0.467,1.541c-0.583,0.665-1.226,0.665-1.467,0.665
				H158.667c-0.241,0-0.884,0-1.467-0.665c-0.582-0.664-0.498-1.302-0.467-1.54l18.349-139.667c0.188-1.431,1.205-2.649,2.592-3.104
				c21.182-6.947,45.388-4.063,61.753-1.287c34.01,5.766,61.866,6.037,93.138,0.905c1.359-0.225,2.354,0.336,2.829,0.69
				c0.479,0.355,1.31,1.158,1.49,2.535l5.381,40.957c0.54,4.107,4.319,6.993,8.413,6.459c4.107-0.539,6.999-4.306,6.46-8.413
				l-5.381-40.957c-0.668-5.083-3.303-9.566-7.42-12.624c-4.108-3.052-9.15-4.279-14.201-3.449
				c-29.543,4.849-55.921,4.582-88.201-0.892c-17.935-3.041-44.594-6.161-68.937,1.823c-6.835,2.242-11.854,8.289-12.789,15.404
				l-16.337,124.355H129.63l31.43-239.232h189.88L382.37,448.409z M134.62,194.177c-6.85,0-12.423-5.573-12.423-12.423v-8.922
				c0-6.85,5.573-12.423,12.423-12.423h26.578c4.143,0,7.5-3.358,7.5-7.5c0-4.142-3.357-7.5-7.5-7.5h-21.736
				c-5.953,0-10.885-4.468-11.47-10.393l-2.827-28.627c-1.779-18.023,2.394-36.489,11.751-51.995
				C151.578,30.094,178.315,15,206.694,15h98.611c28.379,0,55.116,15.094,69.778,39.393c9.357,15.506,13.53,33.972,11.751,51.995
				l-2.827,28.628c-0.585,5.925-5.517,10.393-11.47,10.393H196.195c-4.143,0-7.5,3.358-7.5,7.5c0,4.142,3.357,7.5,7.5,7.5H377.38
				c6.85,0,12.423,5.573,12.423,12.423v8.922c0,6.85-5.573,12.423-12.423,12.423H134.62z"/>
			<path d="M307.831,62.992c10.981,0,19.915-8.934,19.915-19.916c0-10.981-8.934-19.916-19.915-19.916
				c-10.981,0-19.916,8.934-19.916,19.916C287.915,54.058,296.85,62.992,307.831,62.992z M307.831,38.161
				c2.71,0,4.915,2.205,4.915,4.916c0,2.71-2.205,4.916-4.915,4.916c-2.711,0-4.916-2.205-4.916-4.916S305.12,38.161,307.831,38.161
				z"/>
			<circle cx="308.074" cy="341.712" r="7.475"/>
			<path d="M256,59.109c10.981,0,19.915-8.934,19.915-19.916c0-10.981-8.934-19.916-19.915-19.916
				c-10.981,0-19.915,8.934-19.915,19.916S245.019,59.109,256,59.109z M256,34.278c2.71,0,4.915,2.205,4.915,4.916
				c0,2.71-2.205,4.916-4.915,4.916c-2.71,0-4.915-2.205-4.915-4.916S253.29,34.278,256,34.278z"/>
		</g>
	</g>
</g>
<g>
</g>
<g>
</g>
<g>
</g>
<g>
</g>
<g>
</g>
<g>
</g>
<g>
</g>
<g>
</g>
<g>
</g>
<g>
</g>
<g>
</g>
<g>
</g>
<g>
</g>
<g>
</g>
<g>
</g>
</svg>
